<svg width="14" height="17" viewBox="0 0 14 17" fill="none" xmlns="http://www.w3.org/2000/svg">
<path d="M6.99958 0.831578C9.41637 0.831578 11.3777 2.77514 11.3777 5.17326C11.3777 6.1053 10.9761 7.51997 10.1268 8.50321L6.99958 12.1144L3.87368 8.50428C3.02327 7.52104 2.62169 6.10638 2.62169 5.17326C2.62169 2.77514 4.58279 0.831578 6.99958 0.831578V0.831578ZM6.99958 0C4.12838 0 1.78567 2.32443 1.78567 5.17305C1.78567 6.32637 2.22204 7.86935 3.23738 9.04367V9.04496L4.6951 10.728H2.19069C2.00987 10.7289 1.84924 10.8448 1.7934 11.0151L0.0206455 16.4583C-0.0669723 16.726 0.135322 17 0.419006 17H13.5801C13.8651 17 14.0661 16.726 13.9798 16.4583L12.2057 11.0151C12.1499 10.8439 11.9893 10.728 11.8076 10.728H10.2165C9.62961 10.6991 9.62961 11.5887 10.2165 11.5585H11.5035L13.0046 16.1684H0.995823L2.49563 11.5585H5.41387L6.53615 12.8543H5.79999C5.57342 12.85 5.38616 13.0313 5.38616 13.2573C5.38616 13.4833 5.57342 13.666 5.79999 13.6615H8.19659C8.42444 13.666 8.6117 13.4833 8.6117 13.2573C8.6117 13.0313 8.42422 12.8503 8.19659 12.8543H7.46386L10.7616 9.04496V9.04367C11.7782 7.86935 12.2146 6.32637 12.2146 5.17305C12.2148 2.32443 9.87078 0 6.99958 0V0Z" fill="#CC3069"/>
<path d="M7.8996 6.06611C7.39923 6.56266 6.59994 6.56373 6.09979 6.0674C5.59942 5.57085 5.59942 4.77612 6.09979 4.27914C6.60015 3.78281 7.39923 3.78388 7.8996 4.28043C8.40104 4.77676 8.40104 5.56871 7.8996 6.06504V6.06611ZM8.49295 6.6537C9.3133 5.84012 9.3133 4.50749 8.49295 3.69262C7.67154 2.87861 6.32849 2.87861 5.50858 3.69262C4.68716 4.50749 4.68716 5.8399 5.50858 6.6537C6.32849 7.46771 7.67154 7.46771 8.49295 6.6537Z" fill="#CC3069"/>
</svg>
