<svg width="50" height="50" viewBox="0 0 50 50" fill="none" xmlns="http://www.w3.org/2000/svg">
<path d="M24.81 49.62C38.5122 49.62 49.62 38.5122 49.62 24.81C49.62 11.1078 38.5122 0 24.81 0C11.1078 0 0 11.1078 0 24.81C0 38.5122 11.1078 49.62 24.81 49.62Z" fill="#AD0E64"/>
<path d="M29.7071 24.7071C30.0976 24.3166 30.0976 23.6834 29.7071 23.2929L23.3431 16.9289C22.9526 16.5384 22.3195 16.5384 21.9289 16.9289C21.5384 17.3195 21.5384 17.9526 21.9289 18.3431L27.5858 24L21.9289 29.6569C21.5384 30.0474 21.5384 30.6805 21.9289 31.0711C22.3195 31.4616 22.9526 31.4616 23.3431 31.0711L29.7071 24.7071ZM28 25H29V23H28V25Z" fill="white"/>
</svg>
