<svg width="16" height="16" viewBox="0 0 16 16" fill="none" xmlns="http://www.w3.org/2000/svg">
<path d="M1.39748 16H14.1822C14.5527 15.9996 14.908 15.8522 15.17 15.5902C15.432 15.3283 15.5794 14.973 15.5798 14.6025V4.59697C15.5798 4.54737 15.5669 4.49862 15.5423 4.45553C15.5178 4.41243 15.4824 4.37646 15.4398 4.35116L14.1345 3.57783V2.01785C14.1342 1.79474 14.0455 1.58084 13.8877 1.42308C13.73 1.26532 13.5161 1.17658 13.293 1.17632H10.0819L8.36043 0.156216C8.18764 0.0539531 7.99054 0 7.78976 0C7.58898 0 7.39188 0.0539531 7.21909 0.156216L5.49776 1.17632H2.28684C2.06371 1.17655 1.84979 1.26528 1.692 1.42304C1.53421 1.58081 1.44545 1.79472 1.44519 2.01785V3.57784L0.140067 4.35116C0.0974053 4.37646 0.0620598 4.41243 0.0375027 4.45553C0.0129456 4.49863 2.14905e-05 4.54737 0 4.59698V14.6025C0.000437813 14.973 0.147812 15.3282 0.409795 15.5902C0.671777 15.8522 1.02698 15.9996 1.39748 16ZM5.94795 10.8806L0.693299 15.0284C0.614254 14.9004 0.572079 14.753 0.57142 14.6025V5.30506L5.94795 10.8806ZM1.39748 15.4286C1.31636 15.4274 1.23588 15.4141 1.15869 15.3892L6.34663 11.2941L6.38384 11.3327C6.56994 11.5236 6.79296 11.6746 7.03932 11.7765C7.28567 11.8784 7.55019 11.9291 7.81677 11.9255C8.08335 11.9219 8.3464 11.864 8.58989 11.7555C8.83339 11.6469 9.05223 11.4899 9.23308 11.294L14.4211 15.3892C14.3439 15.4141 14.2633 15.4274 14.1822 15.4286H1.39748ZM15.0084 5.30492V14.6025C15.0077 14.753 14.9655 14.9005 14.8864 15.0285L9.63165 10.8807L15.0084 5.30492ZM14.8567 4.66989C14.6037 4.89664 14.3627 5.13629 14.1345 5.38788V4.24204L14.8567 4.66989ZM7.5104 0.647853C7.59494 0.59765 7.69145 0.571155 7.78977 0.571155C7.88809 0.571155 7.9846 0.59765 8.06914 0.647853L8.96094 1.17632H6.61864L7.5104 0.647853ZM2.28684 1.74775H13.293C13.3646 1.74781 13.4332 1.77629 13.4839 1.82692C13.5345 1.87756 13.563 1.94623 13.5631 2.01784V5.98048L8.78454 10.9359C8.6552 11.0688 8.50053 11.1744 8.32969 11.2465C8.15884 11.3187 7.97527 11.3558 7.78983 11.3558C7.60438 11.3558 7.42082 11.3187 7.24997 11.2465C7.07913 11.1744 6.92447 11.0688 6.79512 10.9359L2.01662 5.98048V2.01785C2.01671 1.94622 2.04521 1.87755 2.09587 1.82692C2.14653 1.77628 2.21521 1.74781 2.28684 1.74775V1.74775ZM1.44519 5.38788C1.21687 5.13644 0.975887 4.89678 0.723182 4.66985L1.44519 4.24207V5.38788Z" fill="#CC3069"/>
<path d="M4.36124 3.71374H11.2185C11.2932 3.71224 11.3645 3.68148 11.4168 3.62806C11.4692 3.57463 11.4985 3.50281 11.4985 3.42801C11.4985 3.35321 11.4692 3.28139 11.4168 3.22797C11.3644 3.17455 11.2932 3.1438 11.2184 3.1423H4.36124C4.28645 3.1438 4.21523 3.17456 4.16287 3.22798C4.11051 3.2814 4.08118 3.35322 4.08118 3.42802C4.08118 3.50282 4.11051 3.57464 4.16287 3.62806C4.21523 3.68148 4.28645 3.71224 4.36124 3.71374V3.71374Z" fill="#CC3069"/>
<path d="M4.36124 5.42846H11.2185C11.2933 5.427 11.3645 5.39625 11.4169 5.34283C11.4693 5.2894 11.4986 5.21756 11.4986 5.14273C11.4986 5.06791 11.4693 4.99607 11.4169 4.94264C11.3645 4.88922 11.2932 4.85848 11.2184 4.85703H4.36124C4.28645 4.85852 4.21523 4.88928 4.16287 4.9427C4.11051 4.99612 4.08118 5.06794 4.08118 5.14274C4.08118 5.21754 4.11051 5.28937 4.16287 5.34279C4.21523 5.3962 4.28645 5.42696 4.36124 5.42846V5.42846Z" fill="#CC3069"/>
<path d="M10.3613 6.57174H5.21834C5.14356 6.57324 5.07234 6.604 5.01998 6.65742C4.96762 6.71084 4.93829 6.78266 4.93829 6.85747C4.9383 6.93227 4.96763 7.00409 5.01999 7.05751C5.07236 7.11092 5.14358 7.14168 5.21836 7.14317H10.3613C10.436 7.14168 10.5073 7.11092 10.5596 7.0575C10.612 7.00408 10.6413 6.93226 10.6413 6.85746C10.6413 6.78265 10.612 6.71083 10.5596 6.65741C10.5073 6.60399 10.436 6.57324 10.3613 6.57174Z" fill="#CC3069"/>
</svg>
