<svg width="18" height="18" viewBox="0 0 18 18" fill="none" xmlns="http://www.w3.org/2000/svg">
<path d="M14.291 17.9928C11.9185 17.9928 8.26598 16.0547 5.1018 12.8905C0.901753 8.69558 -1.13915 3.63701 0.649853 1.848L2.10471 0.395722C2.22982 0.270284 2.37846 0.170762 2.54209 0.102858C2.70573 0.0349533 2.88116 0 3.05833 0C3.2355 0 3.41092 0.0349533 3.57456 0.102858C3.7382 0.170762 3.88683 0.270284 4.01195 0.395722L6.4744 2.85817C6.59984 2.98329 6.69936 3.13192 6.76727 3.29556C6.83517 3.4592 6.87012 3.63463 6.87012 3.8118C6.87012 3.98897 6.83517 4.16439 6.76727 4.32803C6.69936 4.49167 6.59984 4.6403 6.4744 4.76542L5.53106 5.70876C4.97328 6.26654 5.73926 8.27917 7.73133 10.2687C9.7234 12.2582 11.7335 13.0267 12.2912 12.4689L13.2346 11.5256C13.3597 11.4002 13.5083 11.3006 13.672 11.2327C13.8356 11.1648 14.011 11.1299 14.1882 11.1299C14.3654 11.1299 14.5408 11.1648 14.7044 11.2327C14.8681 11.3006 15.0167 11.4002 15.1418 11.5256L17.6043 13.9881C17.7297 14.1132 17.8292 14.2618 17.8971 14.4254C17.965 14.5891 18 14.7645 18 14.9417C18 15.1188 17.965 15.2943 17.8971 15.4579C17.8292 15.6215 17.7297 15.7702 17.6043 15.8953L16.152 17.3501C15.7099 17.7923 15.0699 17.9928 14.291 17.9928V17.9928ZM3.05833 0.51396C2.94772 0.515792 2.83856 0.539441 2.73711 0.58355C2.63566 0.627659 2.54391 0.69136 2.46713 0.771002L1.01228 2.213C-0.37317 3.59845 1.23848 8.30744 5.4668 12.5332C7.43059 14.4996 9.64115 16.0392 11.6923 16.8721C13.597 17.6432 15.0878 17.6843 15.787 16.9877L17.2419 15.5329C17.3196 15.4553 17.3812 15.3631 17.4233 15.2617C17.4654 15.1602 17.487 15.0515 17.487 14.9417C17.487 14.8319 17.4654 14.7231 17.4233 14.6217C17.3812 14.5202 17.3196 14.4281 17.2419 14.3505L14.7794 11.888C14.622 11.7323 14.4096 11.645 14.1882 11.645C13.9668 11.645 13.7544 11.7323 13.597 11.888L12.6537 12.8314C11.7746 13.713 9.50235 12.7671 7.36633 10.6337C5.23032 8.50023 4.28184 6.22541 5.16863 5.34633L6.11197 4.40299C6.26769 4.24563 6.35503 4.03318 6.35503 3.8118C6.35503 3.59041 6.26769 3.37797 6.11197 3.2206L3.64952 0.771002C3.57274 0.69136 3.481 0.627659 3.37955 0.58355C3.2781 0.539441 3.16894 0.515792 3.05833 0.51396V0.51396Z" fill="#CC3069"/>
<path d="M5.34856 5.78587C5.31455 5.78573 5.28091 5.77884 5.24958 5.76561C5.21825 5.75237 5.18987 5.73305 5.16606 5.70876L1.15879 1.70149C1.11092 1.65333 1.08405 1.58818 1.08405 1.52028C1.08405 1.45237 1.11092 1.38722 1.15879 1.33906C1.18269 1.31497 1.21112 1.29585 1.24244 1.2828C1.27376 1.26975 1.30736 1.26303 1.34129 1.26303C1.37522 1.26303 1.40882 1.26975 1.44014 1.2828C1.47146 1.29585 1.49989 1.31497 1.52379 1.33906L5.53106 5.34633C5.56731 5.38229 5.59203 5.42822 5.60207 5.47828C5.61212 5.52834 5.60702 5.58025 5.58745 5.6274C5.56787 5.67456 5.53469 5.71481 5.49215 5.74303C5.4496 5.77126 5.39961 5.78617 5.34856 5.78587Z" fill="#CC3069"/>
<path d="M16.4784 16.9158C16.411 16.9155 16.3464 16.8887 16.2985 16.8412L12.2912 12.8339C12.2672 12.81 12.248 12.7816 12.235 12.7503C12.2219 12.719 12.2152 12.6854 12.2152 12.6514C12.2152 12.6175 12.2219 12.5839 12.235 12.5526C12.248 12.5213 12.2672 12.4928 12.2912 12.4689C12.3394 12.4211 12.4045 12.3942 12.4725 12.3942C12.5404 12.3942 12.6055 12.4211 12.6537 12.4689L16.6609 16.4762C16.685 16.5001 16.7042 16.5285 16.7172 16.5599C16.7303 16.5912 16.737 16.6248 16.737 16.6587C16.737 16.6926 16.7303 16.7262 16.7172 16.7576C16.7042 16.7889 16.685 16.8173 16.6609 16.8412C16.6369 16.865 16.6084 16.8839 16.5771 16.8967C16.5458 16.9095 16.5123 16.9159 16.4784 16.9158Z" fill="#CC3069"/>
<path d="M15.8718 9.46156C15.8036 9.46156 15.7383 9.43447 15.6901 9.38627C15.6419 9.33806 15.6148 9.27269 15.6148 9.20451C15.6209 7.39681 14.9091 5.66063 13.6356 4.37757C12.3622 3.09451 10.6315 2.36957 8.82375 2.36208C8.75558 2.36208 8.6902 2.335 8.642 2.2868C8.59379 2.23859 8.56671 2.17321 8.56671 2.10504C8.56671 2.03687 8.59379 1.97149 8.642 1.92329C8.6902 1.87508 8.75558 1.848 8.82375 1.848C10.7682 1.85548 12.6302 2.63494 14.0001 4.01497C15.37 5.39499 16.1357 7.26259 16.1289 9.20708C16.1282 9.27481 16.1008 9.33953 16.0527 9.38718C16.0045 9.43483 15.9395 9.46156 15.8718 9.46156V9.46156Z" fill="#CC3069"/>
<path d="M13.6998 9.45384C13.6317 9.45384 13.5663 9.42676 13.5181 9.37856C13.4699 9.33035 13.4428 9.26497 13.4428 9.1968C13.4469 7.96515 12.9619 6.78224 12.0944 5.90795C11.2268 5.03367 10.0477 4.53952 8.81606 4.53408C8.74789 4.53408 8.68251 4.507 8.63431 4.45879C8.5861 4.41059 8.55902 4.34521 8.55902 4.27704C8.55902 4.20887 8.5861 4.14349 8.63431 4.09528C8.68251 4.04708 8.74789 4.02 8.81606 4.02C10.1841 4.0268 11.4936 4.57589 12.4573 5.54685C13.421 6.5178 13.9603 7.83134 13.9569 9.19937C13.9562 9.2671 13.9288 9.33182 13.8807 9.37947C13.8326 9.42712 13.7676 9.45385 13.6998 9.45384V9.45384Z" fill="#CC3069"/>
<path d="M11.5304 9.44614C11.4622 9.44614 11.3968 9.41906 11.3486 9.37085C11.3004 9.32265 11.2733 9.25727 11.2733 9.1891C11.2747 8.53257 11.0157 7.90228 10.5532 7.43637C10.0907 6.97045 9.46226 6.70691 8.80575 6.70351C8.73758 6.70351 8.6722 6.67643 8.62399 6.62823C8.57579 6.58002 8.54871 6.51464 8.54871 6.44647C8.54871 6.3783 8.57579 6.31292 8.62399 6.26472C8.6722 6.21651 8.73758 6.18943 8.80575 6.18943C9.59905 6.19283 10.3586 6.51089 10.9176 7.07377C11.4766 7.63665 11.7895 8.39836 11.7874 9.19167C11.7867 9.25939 11.7594 9.32412 11.7112 9.37177C11.6631 9.41942 11.5981 9.44614 11.5304 9.44614V9.44614Z" fill="#CC3069"/>
</svg>
