<svg width="27" height="23" viewBox="0 0 27 23" fill="none" xmlns="http://www.w3.org/2000/svg">
<path d="M26.5831 0.625397C26.2533 0.222061 25.7593 0 25.192 0C24.8837 0 24.557 0.064888 24.2212 0.193222L1.36619 8.91767C0.153302 9.38054 -0.0100513 10.0751 0.000454363 10.448C0.01096 10.8208 0.213452 11.5052 1.45065 11.8988C1.45807 11.9011 1.46548 11.9033 1.4729 11.9054L6.21363 13.2621L8.77743 20.5934C9.127 21.5929 9.91163 22.2137 10.8254 22.2137C11.4016 22.2137 11.9683 21.9723 12.4643 21.5158L15.3966 18.8159L19.6498 22.2405C19.6502 22.2409 19.6508 22.2411 19.6512 22.2415L19.6916 22.2741C19.6953 22.277 19.6992 22.2801 19.7029 22.283C20.1757 22.6496 20.6917 22.8433 21.1958 22.8435H21.196C22.1808 22.8435 22.965 22.1144 23.1935 20.9864L26.9382 2.49561C27.0886 1.75342 26.9626 1.08929 26.5831 0.625397V0.625397ZM7.79958 13.0044L16.9459 8.33183L11.2508 14.3833C11.1575 14.4824 11.0914 14.6037 11.0588 14.7358L9.96066 19.184L7.79958 13.0044ZM11.3925 20.352C11.3546 20.3868 11.3165 20.4179 11.2784 20.4465L12.2972 16.3201L14.1506 17.8125L11.3925 20.352ZM25.3877 2.18147L21.643 20.6725C21.6069 20.8494 21.4918 21.2612 21.1958 21.2612C21.0495 21.2612 20.8658 21.1815 20.6777 21.0367L15.8583 17.1562C15.8576 17.1556 15.8568 17.1549 15.856 17.1545L12.9884 14.8453L21.2242 6.09412C21.4879 5.81396 21.5118 5.38488 21.2808 5.07713C21.0497 4.76937 20.6309 4.67255 20.2884 4.84765L6.74263 11.7678L1.93741 10.393L24.7854 1.67123C24.9784 1.59748 25.1131 1.58203 25.192 1.58203C25.2404 1.58203 25.3265 1.5878 25.3585 1.62714C25.4005 1.67844 25.4541 1.85332 25.3877 2.18147V2.18147Z" fill="black"/>
</svg>
