<svg width="29" height="23" viewBox="0 0 29 23" fill="none" xmlns="http://www.w3.org/2000/svg">
<mask id="path-1-outside-1_9_50" maskUnits="userSpaceOnUse" x="0" y="0" width="29" height="23" fill="black">
<rect fill="white" width="29" height="23"/>
<path d="M27.7295 5.64272C27.7295 5.55255 27.4591 3.56928 26.6027 2.6227C25.5659 1.49584 24.4391 1.36062 23.8531 1.31551H23.6728C20.0218 1.04506 14.5677 1 14.4775 1C14.4325 1 8.93329 1.04506 5.32726 1.40568H5.19204C4.56091 1.45073 3.43406 1.58596 2.44242 2.71282C1.5409 3.6594 1.27045 5.68777 1.27045 5.77794C1.27045 5.77794 1 8.07677 1 10.3756V12.4942C1 14.7479 1.27045 17.0468 1.27045 17.0918C1.27045 17.182 1.5409 19.1652 2.39731 20.1118C3.34389 21.1936 4.47075 21.3289 5.19198 21.419C5.32721 21.419 5.41738 21.419 5.5526 21.4641C7.62604 21.6444 14.207 21.7345 14.4775 21.7345C14.5225 21.7345 20.0217 21.7345 23.6728 21.3289H23.808C24.4391 21.2838 25.5659 21.1486 26.5576 20.0217C27.4591 19.0751 27.7295 17.0467 27.7295 16.9565C27.7295 16.9565 28 14.6577 28 12.3589V10.2404C28 7.98661 27.7295 5.68777 27.7295 5.64272ZM27.0985 12.449C27.0985 14.7028 26.828 16.9565 26.828 16.9565C26.7379 17.4524 26.4674 18.8947 25.8815 19.5258C25.1152 20.4273 24.2137 20.5174 23.7178 20.5626H23.5826C19.9766 20.833 14.5225 20.833 14.4775 20.833C14.4324 20.833 7.67115 20.7428 5.68783 20.5175C5.5526 20.5175 5.41738 20.4724 5.28215 20.4724C4.65108 20.4274 3.74962 20.2922 3.02838 19.4808C2.48748 18.8948 2.17197 17.4524 2.12686 16.9566C2.12686 16.9115 1.85641 14.6578 1.85641 12.4491V10.3305C1.85641 8.07677 2.12686 5.82305 2.12686 5.82305C2.17192 5.32721 2.48748 3.88484 3.02838 3.25377C3.83973 2.35225 4.69614 2.26209 5.23704 2.21703H5.37227C8.97829 1.94658 14.4324 1.90152 14.4774 1.90152C14.5225 1.90152 19.9766 1.94658 23.5826 2.21703H23.7629C24.2587 2.26209 25.1602 2.35225 25.9265 3.25377C26.4674 3.88484 26.7378 5.32721 26.828 5.82305C26.873 5.91322 27.0984 8.16694 27.0984 10.3305L27.0985 12.449Z"/>
</mask>
<path d="M27.7295 5.64272C27.7295 5.55255 27.4591 3.56928 26.6027 2.6227C25.5659 1.49584 24.4391 1.36062 23.8531 1.31551H23.6728C20.0218 1.04506 14.5677 1 14.4775 1C14.4325 1 8.93329 1.04506 5.32726 1.40568H5.19204C4.56091 1.45073 3.43406 1.58596 2.44242 2.71282C1.5409 3.6594 1.27045 5.68777 1.27045 5.77794C1.27045 5.77794 1 8.07677 1 10.3756V12.4942C1 14.7479 1.27045 17.0468 1.27045 17.0918C1.27045 17.182 1.5409 19.1652 2.39731 20.1118C3.34389 21.1936 4.47075 21.3289 5.19198 21.419C5.32721 21.419 5.41738 21.419 5.5526 21.4641C7.62604 21.6444 14.207 21.7345 14.4775 21.7345C14.5225 21.7345 20.0217 21.7345 23.6728 21.3289H23.808C24.4391 21.2838 25.5659 21.1486 26.5576 20.0217C27.4591 19.0751 27.7295 17.0467 27.7295 16.9565C27.7295 16.9565 28 14.6577 28 12.3589V10.2404C28 7.98661 27.7295 5.68777 27.7295 5.64272ZM27.0985 12.449C27.0985 14.7028 26.828 16.9565 26.828 16.9565C26.7379 17.4524 26.4674 18.8947 25.8815 19.5258C25.1152 20.4273 24.2137 20.5174 23.7178 20.5626H23.5826C19.9766 20.833 14.5225 20.833 14.4775 20.833C14.4324 20.833 7.67115 20.7428 5.68783 20.5175C5.5526 20.5175 5.41738 20.4724 5.28215 20.4724C4.65108 20.4274 3.74962 20.2922 3.02838 19.4808C2.48748 18.8948 2.17197 17.4524 2.12686 16.9566C2.12686 16.9115 1.85641 14.6578 1.85641 12.4491V10.3305C1.85641 8.07677 2.12686 5.82305 2.12686 5.82305C2.17192 5.32721 2.48748 3.88484 3.02838 3.25377C3.83973 2.35225 4.69614 2.26209 5.23704 2.21703H5.37227C8.97829 1.94658 14.4324 1.90152 14.4774 1.90152C14.5225 1.90152 19.9766 1.94658 23.5826 2.21703H23.7629C24.2587 2.26209 25.1602 2.35225 25.9265 3.25377C26.4674 3.88484 26.7378 5.32721 26.828 5.82305C26.873 5.91322 27.0984 8.16694 27.0984 10.3305L27.0985 12.449Z" fill="black"/>
<path d="M26.6027 2.6227L26.9735 2.28724L26.9706 2.28417L26.6027 2.6227ZM23.8531 1.31551L23.8915 0.816983L23.8723 0.815508H23.8531V1.31551ZM23.6728 1.31551L23.6359 1.81414L23.6544 1.81551H23.6728V1.31551ZM5.32726 1.40568V1.90568H5.3522L5.37702 1.90319L5.32726 1.40568ZM5.19204 1.40568V0.905676H5.17421L5.15643 0.906945L5.19204 1.40568ZM2.44242 2.71282L2.80449 3.05765L2.81127 3.05052L2.81778 3.04313L2.44242 2.71282ZM1.27045 5.77794L1.76703 5.83636L1.77045 5.80725V5.77794H1.27045ZM2.39731 20.1118L2.77365 19.7825L2.76808 19.7764L2.39731 20.1118ZM5.19198 21.419L5.12996 21.9152L5.16085 21.919H5.19198V21.419ZM5.5526 21.4641L5.39454 21.9384L5.45052 21.9571L5.50929 21.9622L5.5526 21.4641ZM23.6728 21.3289V20.8289H23.6451L23.6176 20.8319L23.6728 21.3289ZM23.808 21.3289V21.8289H23.8258L23.8436 21.8276L23.808 21.3289ZM26.5576 20.0217L26.1955 19.6768L26.1887 19.684L26.1822 19.6914L26.5576 20.0217ZM27.7295 16.9565L27.233 16.8981L27.2295 16.9272V16.9565H27.7295ZM27.0985 12.449L27.5985 12.449L27.5985 12.449L27.0985 12.449ZM26.828 16.9565L27.32 17.046L27.3227 17.0311L27.3245 17.0161L26.828 16.9565ZM25.8815 19.5258L25.515 19.1856L25.5076 19.1936L25.5005 19.202L25.8815 19.5258ZM23.7178 20.5626V21.0626H23.7405L23.7631 21.0605L23.7178 20.5626ZM23.5826 20.5626V20.0626H23.5639L23.5452 20.064L23.5826 20.5626ZM5.68783 20.5175L5.74427 20.0207L5.71614 20.0175H5.68783V20.5175ZM5.28215 20.4724L5.24654 20.9712L5.26432 20.9724H5.28215V20.4724ZM3.02838 19.4808L3.40214 19.1486L3.39578 19.1417L3.02838 19.4808ZM2.12686 16.9566H1.62686V16.9793L1.62892 17.0019L2.12686 16.9566ZM2.12686 5.82305L2.6233 5.88263L2.62416 5.87548L2.62481 5.8683L2.12686 5.82305ZM3.02838 3.25377L2.65662 2.9192L2.64875 2.92838L3.02838 3.25377ZM5.23704 2.21703V1.71703H5.21625L5.19553 1.71875L5.23704 2.21703ZM5.37227 2.21703V2.71703H5.39099L5.40966 2.71563L5.37227 2.21703ZM23.5826 2.21703L23.5452 2.71563L23.5638 2.71703H23.5826V2.21703ZM23.7629 2.21703L23.8081 1.71908L23.7855 1.71703H23.7629V2.21703ZM25.9265 3.25377L25.5455 3.5776L25.5468 3.57916L25.9265 3.25377ZM26.828 5.82305L26.336 5.91251L26.3488 5.98272L26.3807 6.04656L26.828 5.82305ZM27.0984 10.3305L26.5984 10.3305L26.5984 10.3306L27.0984 10.3305ZM28.2295 5.64272C28.2295 5.58888 28.2188 5.50905 28.2114 5.4565C28.2014 5.38472 28.1864 5.28951 28.1659 5.17661C28.1249 4.95109 28.0611 4.64972 27.9688 4.31937C27.7898 3.67827 27.4832 2.85069 26.9735 2.28725L26.2319 2.95816C26.5786 3.34129 26.8354 3.97864 27.0057 4.58836C27.0881 4.88341 27.1454 5.15393 27.1819 5.35521C27.2002 5.45572 27.213 5.53763 27.2211 5.59528C27.2319 5.67214 27.2295 5.67401 27.2295 5.64272H28.2295ZM26.9706 2.28417C25.8075 1.01995 24.527 0.86591 23.8915 0.816983L23.8147 1.81403C24.3511 1.85533 25.3244 1.97174 26.2347 2.96124L26.9706 2.28417ZM23.8531 0.815508H23.6728V1.81551H23.8531V0.815508ZM23.7098 0.816874C20.0396 0.545006 14.5704 0.5 14.4775 0.5V1.5C14.4773 1.5 14.4787 1.5 14.4828 1.50003C14.4865 1.50005 14.4915 1.50008 14.4979 1.50012C14.5107 1.50022 14.5285 1.50036 14.5512 1.50055C14.5966 1.50095 14.6613 1.50156 14.7434 1.50244C14.9077 1.50419 15.1418 1.507 15.4316 1.51121C16.0114 1.51964 16.814 1.5337 17.7275 1.55618C19.5568 1.60121 21.8231 1.67986 23.6359 1.81414L23.7098 0.816874ZM14.4775 0.5C14.431 0.5 8.91031 0.544861 5.27751 0.908158L5.37702 1.90319C7.1622 1.72467 9.42441 1.62364 11.2531 1.56737C12.166 1.53928 12.9679 1.52243 13.5444 1.5126C13.8326 1.50769 14.0644 1.50453 14.2253 1.5026C14.3058 1.50164 14.3685 1.50099 14.4117 1.50057C14.4568 1.50014 14.4778 1.5 14.4775 1.5V0.5ZM5.32726 0.905676H5.19204V1.90568H5.32726V0.905676ZM5.15643 0.906945C4.47841 0.955351 3.18858 1.10806 2.06706 2.38251L2.81778 3.04313C3.67953 2.06386 4.64341 1.94612 5.22764 1.90441L5.15643 0.906945ZM2.08035 2.36799C1.54174 2.93353 1.22227 3.77707 1.03728 4.4303C0.941908 4.76709 0.876521 5.07477 0.834809 5.30493C0.813924 5.42017 0.798734 5.5173 0.788583 5.59041C0.781062 5.64458 0.770451 5.72457 0.770451 5.77794H1.77045C1.77045 5.80877 1.76829 5.80565 1.77908 5.72794C1.78724 5.66916 1.80022 5.58564 1.81878 5.48325C1.85595 5.27815 1.91452 5.00266 1.99945 4.70277C2.17507 4.08263 2.44158 3.43869 2.80449 3.05765L2.08035 2.36799ZM1.27045 5.77794C0.773875 5.71952 0.773871 5.71956 0.773866 5.7196C0.773862 5.71963 0.773856 5.71969 0.77385 5.71974C0.773837 5.71985 0.77382 5.71999 0.773799 5.72017C0.773758 5.72052 0.7737 5.72102 0.773626 5.72165C0.773478 5.72292 0.773266 5.72474 0.772993 5.7271C0.772445 5.73183 0.77165 5.73874 0.770623 5.74776C0.768569 5.7658 0.76559 5.79228 0.761817 5.82664C0.754272 5.89535 0.743551 5.9956 0.730716 6.12289C0.705049 6.37741 0.670895 6.74034 0.636756 7.17562C0.568576 8.04491 0.5 9.20841 0.5 10.3756H1.5C1.5 9.24397 1.56665 8.10864 1.63369 7.25381C1.66717 6.82702 1.70063 6.47157 1.72567 6.22322C1.73819 6.09907 1.7486 6.00177 1.75584 5.93578C1.75946 5.90279 1.7623 5.87764 1.7642 5.86088C1.76516 5.8525 1.76588 5.84622 1.76636 5.84211C1.76659 5.84006 1.76677 5.83855 1.76688 5.83758C1.76694 5.8371 1.76698 5.83676 1.767 5.83656C1.76702 5.83646 1.76702 5.83639 1.76703 5.83636C1.76703 5.83634 1.76703 5.83634 1.76703 5.83633C1.76703 5.83634 1.76703 5.83636 1.27045 5.77794ZM0.5 10.3756V12.4942H1.5V10.3756H0.5ZM0.5 12.4942C0.5 13.6391 0.568608 14.7914 0.636756 15.6603C0.670884 16.0955 0.705011 16.4609 0.730607 16.7204C0.743405 16.8502 0.754069 16.9534 0.761477 17.0251C0.765221 17.0614 0.768011 17.0884 0.769881 17.1071C0.773839 17.1468 0.770451 17.1214 0.770451 17.0918H1.77045C1.77045 17.0566 1.76495 17.0079 1.76495 17.0079C1.76285 16.9869 1.75983 16.9577 1.75618 16.9224C1.7488 16.8509 1.73834 16.7496 1.72578 16.6223C1.70066 16.3677 1.66718 16.0091 1.63369 15.5822C1.56662 14.7269 1.5 13.603 1.5 12.4942H0.5ZM0.770451 17.0918C0.770451 17.1456 0.781218 17.2255 0.788582 17.278C0.79864 17.3498 0.813636 17.445 0.834129 17.5579C0.875065 17.7834 0.938894 18.0848 1.03115 18.4152C1.2102 19.0563 1.51677 19.8838 2.02654 20.4473L2.76808 19.7764C2.42144 19.3932 2.16458 18.7559 1.9943 18.1462C1.9119 17.8511 1.85459 17.5806 1.81805 17.3793C1.79981 17.2788 1.78698 17.1969 1.77891 17.1393C1.76813 17.0624 1.77045 17.0605 1.77045 17.0918H0.770451ZM2.02102 20.4411C3.10055 21.6748 4.39991 21.8239 5.12996 21.9152L5.25401 20.9229C4.54159 20.8338 3.58722 20.7124 2.7736 19.7826L2.02102 20.4411ZM5.19198 21.919C5.26488 21.919 5.29551 21.9195 5.32256 21.9222C5.34181 21.9241 5.36183 21.9275 5.39454 21.9384L5.71066 20.9897C5.49268 20.9171 5.33183 20.919 5.19198 20.919V21.919ZM5.50929 21.9622C7.6074 22.1446 14.2091 22.2345 14.4775 22.2345V21.2345C14.2049 21.2345 7.64468 21.1441 5.59591 20.966L5.50929 21.9622ZM14.4775 22.2345C14.5178 22.2345 20.0448 22.235 23.728 21.8258L23.6176 20.8319C19.9986 21.234 14.5272 21.2345 14.4775 21.2345V22.2345ZM23.6728 21.8289H23.808V20.8289H23.6728V21.8289ZM23.8436 21.8276C24.5216 21.7792 25.8114 21.6265 26.9329 20.352L26.1822 19.6914C25.3205 20.6707 24.3566 20.7884 23.7724 20.8301L23.8436 21.8276ZM26.9196 20.3665C27.4583 19.8009 27.7777 18.9574 27.9627 18.3042C28.0581 17.9674 28.1235 17.6597 28.1652 17.4295C28.1861 17.3143 28.2013 17.2172 28.2114 17.1441C28.2189 17.0899 28.2295 17.0099 28.2295 16.9565H27.2295C27.2295 16.9257 27.2317 16.9288 27.2209 17.0065C27.2128 17.0653 27.1998 17.1488 27.1812 17.2512C27.144 17.4563 27.0855 17.7318 27.0006 18.0317C26.8249 18.6518 26.5584 19.2958 26.1955 19.6768L26.9196 20.3665ZM27.7295 16.9565C28.2261 17.015 28.2261 17.0149 28.2261 17.0149C28.2261 17.0148 28.2261 17.0148 28.2262 17.0147C28.2262 17.0146 28.2262 17.0145 28.2262 17.0143C28.2262 17.014 28.2263 17.0135 28.2264 17.0128C28.2265 17.0116 28.2267 17.0097 28.227 17.0074C28.2276 17.0026 28.2284 16.9957 28.2294 16.9867C28.2314 16.9687 28.2344 16.9422 28.2382 16.9078C28.2457 16.8391 28.2564 16.7389 28.2693 16.6116C28.295 16.3571 28.3291 15.9941 28.3632 15.5589C28.4314 14.6896 28.5 13.5261 28.5 12.3589H27.5C27.5 13.4905 27.4334 14.6258 27.3663 15.4807C27.3328 15.9075 27.2994 16.2629 27.2743 16.5113C27.2618 16.6354 27.2514 16.7327 27.2442 16.7987C27.2405 16.8317 27.2377 16.8568 27.2358 16.8736C27.2348 16.882 27.2341 16.8883 27.2336 16.8924C27.2334 16.8944 27.2332 16.8959 27.2331 16.8969C27.2331 16.8974 27.233 16.8977 27.233 16.8979C27.233 16.898 27.233 16.8981 27.233 16.8981C27.233 16.8981 27.233 16.8981 27.233 16.8981C27.233 16.8981 27.233 16.8981 27.7295 16.9565ZM28.5 12.3589V10.2404H27.5V12.3589H28.5ZM28.5 10.2404C28.5 9.09545 28.4314 7.94308 28.3632 7.07418C28.3291 6.63905 28.295 6.27361 28.2694 6.0141C28.2566 5.88434 28.2459 5.78108 28.2385 5.70938C28.2348 5.67315 28.232 5.64615 28.2301 5.6274C28.2262 5.58771 28.2295 5.61311 28.2295 5.64272H27.2295C27.2295 5.67796 27.2351 5.72659 27.2351 5.72663C27.2371 5.74761 27.2402 5.77681 27.2438 5.81216C27.2512 5.8836 27.2617 5.98494 27.2742 6.11225C27.2993 6.36687 27.3328 6.72545 27.3663 7.15238C27.4334 8.0076 27.5 9.13153 27.5 10.2404H28.5ZM26.5985 12.449C26.5985 13.5578 26.5319 14.6703 26.4648 15.5081C26.4314 15.9263 26.3979 16.2747 26.3729 16.518C26.3604 16.6397 26.35 16.735 26.3428 16.7996C26.3391 16.832 26.3363 16.8566 26.3344 16.873C26.3335 16.8812 26.3327 16.8873 26.3323 16.8914C26.332 16.8934 26.3318 16.8948 26.3317 16.8958C26.3317 16.8962 26.3316 16.8966 26.3316 16.8968C26.3316 16.8969 26.3316 16.8969 26.3316 16.897C26.3316 16.897 26.3316 16.897 26.3316 16.897C26.3316 16.897 26.3316 16.897 26.828 16.9565C27.3245 17.0161 27.3245 17.0161 27.3245 17.016C27.3245 17.016 27.3245 17.0159 27.3245 17.0159C27.3245 17.0158 27.3245 17.0156 27.3245 17.0155C27.3246 17.0151 27.3246 17.0146 27.3247 17.014C27.3249 17.0128 27.3251 17.011 27.3254 17.0086C27.3259 17.004 27.3267 16.9972 27.3277 16.9883C27.3298 16.9706 27.3328 16.9447 27.3365 16.9109C27.3441 16.8435 27.3548 16.7452 27.3677 16.6203C27.3933 16.3707 27.4275 16.0147 27.4617 15.5878C27.5299 14.7353 27.5985 13.5941 27.5985 12.449H26.5985ZM26.3361 16.8671C26.2915 17.1125 26.2055 17.5731 26.0622 18.0453C25.9132 18.5365 25.7252 18.9592 25.515 19.1856L26.2479 19.866C26.6236 19.4613 26.8639 18.8473 27.0191 18.3356C27.1801 17.8049 27.2744 17.2964 27.32 17.046L26.3361 16.8671ZM25.5005 19.202C24.8686 19.9454 24.1423 20.0219 23.6725 20.0646L23.7631 21.0605C24.2851 21.013 25.3617 20.9093 26.2624 19.8496L25.5005 19.202ZM23.7178 20.0626H23.5826V21.0626H23.7178V20.0626ZM23.5452 20.064C19.961 20.3328 14.5258 20.333 14.4775 20.333V21.333C14.5193 21.333 19.9922 21.3332 23.62 21.0612L23.5452 20.064ZM14.4775 20.333C14.4791 20.333 14.4555 20.3327 14.3999 20.332C14.3477 20.3313 14.272 20.3302 14.1757 20.3287C13.9831 20.3259 13.708 20.3215 13.3729 20.3155C12.7026 20.3035 11.7927 20.2852 10.8225 20.2599C8.87099 20.209 6.70951 20.1304 5.74427 20.0207L5.63138 21.0143C7.64822 21.2435 14.4394 21.333 14.4775 21.333V20.333ZM5.68783 20.0175C5.66862 20.0175 5.64212 20.0143 5.56716 20.0018C5.50689 19.9917 5.39817 19.9724 5.28215 19.9724V20.9724C5.30136 20.9724 5.32786 20.9757 5.40282 20.9882C5.46308 20.9982 5.57181 21.0175 5.68783 21.0175V20.0175ZM5.31776 19.9737C4.72305 19.9313 3.98965 19.8096 3.40208 19.1486L2.65468 19.813C3.50958 20.7747 4.57911 20.9235 5.24654 20.9712L5.31776 19.9737ZM3.39578 19.1417C3.2069 18.9371 3.01888 18.5244 2.86971 18.0382C2.72561 17.5686 2.64364 17.1184 2.6248 16.9113L1.62892 17.0019C1.65519 17.2906 1.75353 17.8095 1.91369 18.3316C2.06877 18.837 2.30896 19.4386 2.66098 19.82L3.39578 19.1417ZM2.62686 16.9566C2.62686 16.9353 2.62539 16.9171 2.62533 16.9163C2.6249 16.9105 2.62442 16.905 2.62405 16.9009C2.62328 16.8924 2.6223 16.8825 2.62127 16.8723C2.61917 16.8516 2.61614 16.8229 2.61249 16.7882C2.60511 16.7181 2.59465 16.6187 2.58209 16.4938C2.55699 16.2442 2.52351 15.8927 2.49004 15.4743C2.42299 14.6361 2.35641 13.535 2.35641 12.4491H1.35641C1.35641 13.5718 1.42506 14.7019 1.49323 15.5541C1.52737 15.9808 1.56151 16.3393 1.58711 16.5939C1.59991 16.7212 1.61058 16.8225 1.61799 16.8929C1.62173 16.9285 1.62451 16.9549 1.62638 16.9733C1.63038 17.0127 1.62686 16.9867 1.62686 16.9566H2.62686ZM2.35641 12.4491V10.3305H1.35641V12.4491H2.35641ZM2.35641 10.3305C2.35641 9.2218 2.42302 8.10929 2.49004 7.27151C2.5235 6.85326 2.55695 6.50492 2.58198 6.26157C2.59449 6.13992 2.60489 6.04458 2.61213 5.97995C2.61575 5.94763 2.61858 5.923 2.62048 5.90659C2.62144 5.89839 2.62216 5.89225 2.62263 5.88823C2.62287 5.88622 2.62305 5.88474 2.62316 5.88381C2.62321 5.88334 2.62325 5.88301 2.62328 5.88281C2.62329 5.88271 2.6233 5.88265 2.6233 5.88261C2.6233 5.8826 2.6233 5.8826 2.6233 5.8826C2.6233 5.88261 2.6233 5.88263 2.12686 5.82305C1.63042 5.76348 1.63042 5.76352 1.63041 5.76356C1.63041 5.76359 1.6304 5.76364 1.6304 5.7637C1.63038 5.7638 1.63037 5.76395 1.63034 5.76412C1.6303 5.76447 1.63024 5.76496 1.63017 5.76558C1.63002 5.76683 1.62981 5.76862 1.62953 5.77095C1.62899 5.7756 1.62819 5.78238 1.62716 5.79124C1.6251 5.80895 1.62212 5.83493 1.61835 5.86864C1.61079 5.93606 1.60007 6.0344 1.58723 6.15925C1.56155 6.4089 1.52738 6.76486 1.49323 7.19176C1.42502 8.04429 1.35641 9.18552 1.35641 10.3305H2.35641ZM2.62481 5.8683C2.64362 5.66127 2.72561 5.21069 2.87014 4.73428C3.01865 4.24478 3.20885 3.81153 3.40801 3.57916L2.64875 2.92838C2.30701 3.32709 2.06898 3.93055 1.91321 4.44396C1.75348 4.97046 1.65516 5.48899 1.62891 5.7778L2.62481 5.8683ZM3.40003 3.58825C4.08146 2.83109 4.77679 2.7571 5.27855 2.7153L5.19553 1.71875C4.61549 1.76707 3.598 1.87342 2.65673 2.91929L3.40003 3.58825ZM5.23704 2.71703H5.37227V1.71703H5.23704V2.71703ZM5.40966 2.71563C7.19971 2.58137 9.45452 2.50273 11.2726 2.4577C12.1805 2.43522 12.9775 2.42116 13.5502 2.41273C13.8365 2.40852 14.0667 2.40571 14.2266 2.40395C14.3066 2.40308 14.3689 2.40246 14.4119 2.40207C14.4568 2.40166 14.4775 2.40152 14.4774 2.40152V1.40152C14.4298 1.40152 8.96034 1.44652 5.33487 1.71843L5.40966 2.71563ZM14.4774 2.40152C14.4773 2.40152 14.498 2.40166 14.5429 2.40207C14.5859 2.40246 14.6482 2.40308 14.7282 2.40395C14.8881 2.40571 15.1183 2.40852 15.4047 2.41273C15.9774 2.42116 16.7743 2.43522 17.6823 2.4577C19.5003 2.50273 21.7552 2.58137 23.5452 2.71563L23.62 1.71843C19.9945 1.44652 14.5251 1.40152 14.4774 1.40152V2.40152ZM23.5826 2.71703H23.7629V1.71703H23.5826V2.71703ZM23.7176 2.71498C24.1872 2.75765 24.9136 2.83419 25.5455 3.5776L26.3074 2.92995C25.4067 1.87031 24.3302 1.76652 23.8081 1.71908L23.7176 2.71498ZM25.5468 3.57916C25.7425 3.8075 25.9219 4.2351 26.0663 4.72933C26.205 5.20416 26.2914 5.66701 26.336 5.91251L27.3199 5.7336C27.2744 5.48325 27.1805 4.977 27.0262 4.44891C26.8776 3.94023 26.6513 3.33111 26.3061 2.92838L25.5468 3.57916ZM26.3807 6.04656C26.3652 6.0155 26.357 5.99039 26.3543 5.98201C26.3507 5.97085 26.3485 5.96263 26.3477 5.95932C26.3461 5.95279 26.3459 5.95103 26.347 5.95698C26.3491 5.96819 26.3526 5.98959 26.3574 6.02352C26.3668 6.09022 26.3786 6.18797 26.3921 6.31411C26.4188 6.5654 26.4508 6.91761 26.4814 7.33583C26.5428 8.17283 26.5984 9.2644 26.5984 10.3305H27.5984C27.5984 9.23309 27.5413 8.11599 27.4788 7.26269C27.4475 6.83576 27.4146 6.4724 27.3864 6.20815C27.3724 6.07652 27.3592 5.9665 27.3477 5.88424C27.342 5.8437 27.336 5.80531 27.3299 5.77255C27.3269 5.75651 27.3229 5.73671 27.3177 5.71623C27.3156 5.70761 27.3033 5.65566 27.2752 5.59955L26.3807 6.04656ZM26.5984 10.3306L26.5985 12.4491L27.5985 12.449L27.5984 10.3305L26.5984 10.3306Z" fill="black" mask="url(#path-1-outside-1_9_50)"/>
<path d="M20.2404 11.071L11.6761 6.06763C11.5409 5.97746 11.3606 5.97746 11.2254 6.06763C11.0902 6.15779 11 6.29302 11 6.4733V16.2546C11 16.4349 11.0902 16.5701 11.2254 16.6603C11.3156 16.7053 11.3606 16.7053 11.4508 16.7053C11.541 16.7053 11.586 16.7053 11.6762 16.6603L20.2404 11.8823C20.3757 11.7921 20.4658 11.6569 20.4658 11.4766C20.4658 11.2964 20.3756 11.1611 20.2404 11.071ZM11.9015 15.4883L14.6286 14.5259L19.1135 11.4766L11.9015 15.4883Z" fill="black"/>
</svg>
